<?xml version="1.0" standalone="no"?>
<!DOCTYPE svg PUBLIC "-//W3C//DTD SVG 20010904//EN"
 "http://www.w3.org/TR/2001/REC-SVG-20010904/DTD/svg10.dtd">
<svg version="1.0" xmlns="http://www.w3.org/2000/svg"
 width="1280.000000pt" height="474.000000pt" viewBox="0 0 1280.000000 474.000000"
 preserveAspectRatio="xMidYMid meet">
<metadata>
Created by potrace 1.16, written by Peter Selinger 2001-2019
</metadata>
<g transform="translate(0.000000,474.000000) scale(0.100000,-0.100000)"
fill="#000000" stroke="none">
<path d="M7325 4579 c-204 -26 -358 -92 -470 -202 -99 -99 -148 -196 -165
-335 -31 -241 93 -448 343 -571 122 -60 174 -77 417 -141 232 -60 292 -83 343
-129 67 -61 83 -129 48 -206 -36 -80 -113 -124 -231 -132 -195 -14 -330 86
-374 278 -8 33 -17 63 -19 66 -5 4 -413 -20 -553 -33 l-62 -5 5 -42 c29 -252
180 -484 377 -581 146 -71 312 -100 586 -99 161 0 213 4 297 22 201 42 334
111 446 229 32 34 59 56 61 49 2 -7 13 -52 25 -101 93 -386 437 -693 847 -756
136 -21 131 -13 58 -104 -163 -203 -233 -449 -221 -781 7 -180 28 -297 76
-421 91 -235 270 -421 491 -510 157 -64 190 -68 510 -69 277 0 300 1 379 23
271 74 486 252 596 495 l24 52 0 -277 1 -278 820 0 820 0 0 260 0 260 -495 0
-495 0 0 780 0 780 -325 0 -325 0 0 -277 -1 -278 -38 78 c-55 109 -143 220
-231 291 -127 101 -332 186 -492 203 l-57 6 92 65 c51 36 148 122 217 191 184
185 305 373 383 597 59 168 72 248 72 439 0 147 -3 182 -24 259 -94 359 -342
623 -689 735 -145 47 -212 56 -412 55 -151 0 -204 -4 -286 -22 -518 -112 -981
-474 -1194 -935 -25 -53 -47 -97 -50 -97 -3 0 -16 21 -30 46 -53 101 -170 199
-314 264 -99 44 -265 94 -486 146 -235 55 -290 77 -318 131 -33 60 1 138 76
175 38 19 63 23 132 23 94 -1 161 -24 213 -73 35 -33 73 -105 83 -156 l7 -39
71 6 c39 3 177 11 308 18 l236 13 -5 35 c-47 340 -261 534 -638 580 -104 13
-358 13 -460 0z m2935 -188 c250 -57 432 -167 578 -352 98 -123 153 -231 189
-365 22 -85 26 -121 27 -254 1 -216 -33 -365 -130 -570 -215 -454 -673 -806
-1179 -906 -114 -23 -388 -25 -490 -5 -341 67 -597 254 -736 536 -153 312
-136 686 48 1050 55 108 142 237 219 323 78 87 446 364 554 418 138 68 313
121 480 144 100 14 341 4 440 -19z m-20 -2761 c173 -33 284 -152 326 -351 21
-97 14 -394 -10 -484 -52 -192 -155 -289 -331 -314 -183 -26 -350 52 -425 199
-53 105 -65 176 -65 380 1 147 4 198 19 250 67 244 251 365 486 320z"/>
<path d="M9924 3899 c-108 -34 -263 -151 -325 -245 -10 -16 -24 -53 -30 -82
-25 -108 28 -219 126 -268 80 -39 165 -31 340 30 72 25 142 46 157 46 67 0
103 -82 61 -138 -62 -84 -166 -97 -240 -30 l-21 20 -106 -83 -105 -84 32 -34
c17 -18 59 -46 92 -62 76 -37 167 -40 247 -8 136 53 296 187 340 286 45 100
24 230 -51 315 -91 104 -220 106 -465 8 -116 -47 -149 -50 -172 -15 -22 33 -8
70 39 109 46 37 109 40 154 8 l31 -22 103 82 103 81 -45 39 c-45 40 -120 68
-173 67 -17 0 -59 -9 -92 -20z"/>
<path d="M9205 3405 c-60 -42 -110 -82 -109 -88 1 -7 77 -118 169 -247 207
-289 220 -317 166 -371 -41 -41 -72 -38 -126 12 l-45 41 -67 -60 c-38 -33 -81
-74 -97 -90 -26 -28 -27 -32 -14 -51 26 -37 102 -90 152 -107 111 -37 254 10
377 124 117 108 141 223 77 363 -28 61 -282 438 -354 527 l-19 23 -110 -76z"/>
<path d="M140 3516 l0 -1036 325 0 325 0 0 421 0 422 63 -5 c70 -6 128 -32
169 -75 38 -40 75 -104 265 -459 l168 -314 368 0 c202 0 367 3 367 8 0 20
-337 654 -372 699 -86 112 -119 142 -193 179 l-74 37 78 27 c135 46 225 113
294 218 70 105 89 168 94 302 6 139 -10 221 -64 322 -70 133 -180 217 -344
260 -82 21 -100 22 -776 25 l-693 4 0 -1035z m1097 590 c140 -44 175 -215 65
-319 -47 -45 -115 -59 -324 -64 l-188 -5 0 207 0 208 198 -6 c142 -3 211 -9
249 -21z"/>
<path d="M685 2114 c-304 -47 -502 -188 -582 -415 -22 -62 -26 -92 -26 -179 0
-170 49 -279 178 -397 116 -108 284 -178 623 -262 234 -58 314 -98 352 -175
40 -84 15 -169 -67 -232 -53 -40 -134 -58 -226 -51 -164 14 -278 120 -310 287
l-12 60 -55 -1 c-30 0 -167 -8 -305 -17 l-250 -17 -3 -32 c-4 -42 31 -186 62
-257 65 -146 182 -277 299 -334 34 -17 103 -43 152 -58 88 -27 96 -28 394 -32
256 -3 315 -1 380 13 211 47 391 163 489 319 l30 47 36 -50 c52 -70 161 -169
237 -214 71 -41 210 -90 311 -107 103 -18 577 -8 653 14 240 68 413 220 526
461 40 85 78 209 67 220 -6 6 -561 176 -563 172 -1 -1 -9 -31 -19 -67 -39
-145 -115 -254 -208 -297 -149 -70 -356 -39 -453 69 -87 95 -119 226 -118 483
0 152 4 192 22 260 49 181 159 288 323 315 81 13 176 -2 241 -38 65 -35 139
-118 167 -186 15 -37 28 -56 39 -56 18 0 552 118 557 123 6 5 -64 166 -96 222
-79 138 -201 260 -322 321 -180 91 -507 129 -770 89 -278 -42 -517 -183 -648
-384 -15 -23 -16 -22 -55 55 -93 182 -265 289 -530 329 -125 19 -397 18 -520
-1z m365 -412 c68 -33 115 -93 137 -173 11 -41 21 -59 32 -59 9 0 115 7 236
14 121 8 221 13 222 13 1 -1 -7 -38 -18 -82 -11 -44 -22 -113 -26 -152 -3 -40
-7 -73 -8 -73 -2 0 -38 18 -82 40 -99 52 -303 117 -508 165 -280 64 -315 79
-349 148 -17 36 -17 41 -2 82 42 108 225 147 366 77z"/>
<path d="M7097 2115 c-310 -52 -557 -220 -689 -469 l-37 -71 -1 263 0 262
-325 0 -325 0 0 -365 0 -365 -345 0 -345 0 0 365 0 365 -325 0 -325 0 0 -1040
0 -1040 325 0 325 0 0 420 0 420 345 0 345 0 0 -420 0 -420 325 0 325 0 0 263
0 262 41 -75 c121 -222 293 -357 554 -436 87 -27 100 -28 366 -32 251 -3 283
-2 362 17 302 72 506 230 628 486 86 182 114 348 106 620 -10 325 -80 521
-252 703 -151 160 -323 247 -568 287 -113 18 -400 18 -510 0z m344 -485 c156
-29 268 -140 316 -310 25 -92 25 -412 0 -515 -49 -196 -155 -300 -332 -324
-235 -33 -407 83 -473 321 -14 51 -17 102 -16 263 0 190 1 204 27 282 72 216
255 325 478 283z"/>
</g>
</svg>
